<svg width="3293" height="850" viewBox="0 0 3293 850" fill="none" xmlns="http://www.w3.org/2000/svg">
<g clip-path="url(#clip0_4012_139)">
<path d="M425.75 0C660.471 8.24674e-05 850.75 190.279 850.75 425C850.75 659.721 660.471 850 425.75 850C191.029 850 0.750083 659.721 0.75 425C0.75 190.279 191.029 0 425.75 0ZM273.607 538.111V756.089C312.671 774.069 355.46 785.338 400.5 788.422V600H462.5V787.453C507.807 782.914 550.666 770.075 589.535 750.477V537.611L431.821 379.897L273.607 538.111ZM85.3496 555.009C111.035 622.221 156.055 679.876 213.607 721.173V598.111L213.25 598.469V512.605L431.605 294.25L431.821 294.466L432.037 294.25L650.414 512.626V516.071H650.535V711.683C704.427 669.368 746.088 612.184 769.346 546.312L431.695 208.659L85.3496 555.009ZM304.495 81.3809C162.917 131.34 61.4639 266.323 61.4639 425C61.4639 446.366 63.3048 467.303 66.834 487.66L388.764 165.728L306.123 83.0859L304.495 81.3809ZM553.948 86.4062L474.627 165.728L786.293 477.396C788.758 460.286 790.035 442.792 790.035 425C790.035 269.593 692.722 136.916 555.707 84.5791L553.948 86.4062ZM425.75 60.7139C407.958 60.7139 390.465 61.9906 373.355 64.4551L431.695 122.796L488.406 66.084C468.05 62.5552 447.115 60.7139 425.75 60.7139Z" fill="black"/>
<path d="M3150.45 642.88C3120.27 642.88 3093.61 636.216 3070.48 622.888C3047.35 609.56 3029.32 591.136 3016.39 567.616C3003.84 544.096 2997.57 517.048 2997.57 486.472C2997.57 455.504 3003.84 428.456 3016.39 405.328C3029.32 381.808 3047.35 363.58 3070.48 350.644C3093.61 337.708 3120.07 331.24 3149.86 331.24C3178.87 331.24 3203.96 337.512 3225.13 350.056C3246.69 362.208 3263.35 379.26 3275.11 401.212C3286.87 423.164 3292.75 449.232 3292.75 479.416C3292.75 484.12 3292.55 488.628 3292.16 492.94C3292.16 496.86 3291.77 501.172 3290.98 505.876H3038.73V459.424H3246.29L3231.01 477.064C3231.01 445.312 3223.75 421.204 3209.25 404.74C3195.14 388.276 3175.34 380.044 3149.86 380.044C3122.42 380.044 3100.47 389.452 3084.01 408.268C3067.93 427.084 3059.9 453.152 3059.9 486.472C3059.9 520.184 3067.93 546.644 3084.01 565.852C3100.47 584.668 3123.01 594.076 3151.63 594.076C3168.87 594.076 3183.97 590.548 3196.9 583.492C3209.84 576.436 3219.44 566.048 3225.71 552.328H3284.51C3274.71 580.552 3258.05 602.7 3234.53 618.772C3211.41 634.844 3183.38 642.88 3150.45 642.88Z" fill="black"/>
<path d="M2834.54 642.293C2806.32 642.293 2782.8 635.629 2763.98 622.301C2745.56 608.581 2733.4 589.569 2727.52 565.265L2733.4 564.089V637.001H2674.02V212.641H2735.76V405.917L2729.88 404.153C2736.15 381.417 2748.89 363.581 2768.1 350.645C2787.7 337.709 2811.41 331.241 2839.24 331.241C2865.9 331.241 2889.03 337.709 2908.63 350.645C2928.62 363.581 2944.1 381.613 2955.08 404.741C2966.06 427.869 2971.54 454.917 2971.54 485.885C2971.54 517.245 2965.86 544.685 2954.49 568.205C2943.12 591.725 2927.25 609.953 2906.86 622.889C2886.48 635.825 2862.37 642.293 2834.54 642.293ZM2821.02 590.549C2847.67 590.549 2868.64 581.337 2883.93 562.913C2899.61 544.489 2907.45 518.813 2907.45 485.885C2907.45 453.741 2899.61 428.653 2883.93 410.621C2868.25 392.197 2847.28 382.985 2821.02 382.985C2794.36 382.985 2773.19 392.197 2757.51 410.621C2741.83 429.045 2733.99 454.721 2733.99 487.649C2733.99 519.793 2741.83 545.077 2757.51 563.501C2773.19 581.533 2794.36 590.549 2821.02 590.549Z" fill="black"/>
<path d="M2154.49 637V337.12H2213.88V407.68H2216.23V637H2154.49ZM2356.18 637V441.196C2356.18 421.204 2351.47 406.504 2342.06 397.096C2332.66 387.688 2319.33 382.984 2302.08 382.984C2286.01 382.984 2271.5 386.904 2258.57 394.744C2245.63 402.192 2235.24 412.776 2227.4 426.496C2219.96 439.824 2216.23 455.504 2216.23 473.536L2208.59 403.564C2218.78 381.22 2233.68 363.58 2253.28 350.644C2273.27 337.708 2295.61 331.24 2320.31 331.24C2350.1 331.24 2373.82 339.864 2391.46 357.112C2409.49 374.36 2418.5 397.096 2418.5 425.32V637H2356.18ZM2558.45 637V441.196C2558.45 421.204 2553.74 406.504 2544.34 397.096C2534.93 387.688 2521.4 382.984 2503.76 382.984C2488.08 382.984 2473.58 386.904 2460.25 394.744C2447.32 402.192 2437.12 412.776 2429.68 426.496C2422.23 439.824 2418.5 455.504 2418.5 473.536L2406.16 403.564C2416.35 381.22 2431.64 363.58 2452.02 350.644C2472.4 337.708 2495.34 331.24 2520.82 331.24C2551 331.24 2575.11 340.06 2593.14 357.7C2611.56 374.948 2620.78 398.272 2620.78 427.672V637H2558.45Z" fill="black"/>
<path d="M2047.02 637C2045.06 629.552 2043.69 621.32 2042.9 612.304C2042.12 603.288 2041.73 592.116 2041.73 578.788H2038.79V435.904C2038.79 417.088 2034.08 403.172 2024.67 394.156C2015.27 384.748 2000.37 380.044 1979.99 380.044C1959.99 380.044 1944.12 383.964 1932.36 391.804C1920.6 399.252 1913.74 410.032 1911.78 424.144H1852.39C1855.13 395.92 1867.87 373.38 1890.61 356.524C1913.35 339.668 1943.92 331.24 1982.34 331.24C2021.54 331.24 2050.94 340.452 2070.54 358.876C2090.53 376.908 2100.53 403.76 2100.53 439.432V578.788C2100.53 587.804 2101.11 597.212 2102.29 607.012C2103.47 616.42 2105.23 626.416 2107.58 637H2047.02ZM1942.94 642.88C1912.76 642.88 1888.65 635.432 1870.62 620.536C1852.59 605.248 1843.57 584.668 1843.57 558.796C1843.57 532.14 1852.98 511.168 1871.79 495.88C1891 480.2 1918.44 469.616 1954.11 464.128L2052.31 448.252V491.764L1964.11 505.288C1944.51 508.424 1929.61 513.716 1919.42 521.164C1909.62 528.612 1904.72 539.392 1904.72 553.504C1904.72 566.832 1909.23 577.024 1918.25 584.08C1927.65 590.744 1940.98 594.076 1958.23 594.076C1981.36 594.076 2000.57 588.392 2015.85 577.024C2031.14 565.656 2038.79 551.544 2038.79 534.688L2047.02 578.2C2039.96 598.976 2027.42 615.048 2009.39 626.416C1991.35 637.392 1969.21 642.88 1942.94 642.88Z" fill="black"/>
<path d="M1507.3 637.001L1415.57 337.121H1480.25L1541.4 576.437H1533.17L1607.85 337.121H1662.53L1737.79 576.437H1729.56L1790.13 337.121H1852.45L1760.73 637.001H1705.45L1630.19 401.213H1639.01L1562.57 637.001H1507.3Z" fill="black"/>
<path d="M1326.57 637.001V337.121H1388.31V637.001H1326.57ZM1326.57 282.497V212.641H1388.31V282.497H1326.57Z" fill="black"/>
<path d="M1131.48 642.881C1116.59 642.881 1102.28 641.705 1088.56 639.353C1074.84 637.393 1064.84 634.845 1058.57 631.709V578.201C1067.19 581.729 1077.58 584.669 1089.73 587.021C1101.89 588.981 1114.04 589.961 1126.19 589.961C1152.06 589.961 1171.47 584.669 1184.4 574.085C1197.34 563.501 1203.81 546.645 1203.81 523.517V212.641H1267.31V525.869C1267.31 565.069 1255.75 594.469 1232.62 614.069C1209.49 633.277 1175.78 642.881 1131.48 642.881Z" fill="black"/>
</g>
<defs>
<clipPath id="clip0_4012_139">
<rect width="3293" height="850" fill="white"/>
</clipPath>
</defs>
</svg>
