<svg width="850" height="850" viewBox="0 0 850 850" fill="none" xmlns="http://www.w3.org/2000/svg">
<g clip-path="url(#clip0_4265_2)">
<path d="M425 0C659.721 8.24674e-05 850 190.279 850 425C850 659.721 659.721 850 425 850C190.279 850 8.25103e-05 659.721 0 425C0 190.279 190.279 0 425 0ZM272.857 538.111V756.089C311.921 774.069 354.71 785.338 399.75 788.422V600H461.75V787.453C507.057 782.914 549.916 770.075 588.785 750.477V537.611L431.071 379.897L272.857 538.111ZM84.5996 555.009C110.285 622.221 155.305 679.876 212.857 721.173V598.111L212.5 598.469V512.605L430.855 294.25L431.071 294.466L431.287 294.25L649.664 512.626V516.071H649.785V711.683C703.677 669.368 745.338 612.184 768.596 546.312L430.945 208.659L84.5996 555.009ZM303.745 81.3809C162.167 131.34 60.7139 266.323 60.7139 425C60.7139 446.366 62.5548 467.303 66.084 487.66L388.014 165.728L305.373 83.0859L303.745 81.3809ZM553.198 86.4062L473.877 165.728L785.543 477.396C788.008 460.286 789.285 442.792 789.285 425C789.285 269.593 691.972 136.916 554.957 84.5791L553.198 86.4062ZM425 60.7139C407.208 60.7139 389.715 61.9906 372.605 64.4551L430.945 122.796L487.656 66.084C467.3 62.5552 446.365 60.7139 425 60.7139Z" fill="white"/>
</g>
<defs>
<clipPath id="clip0_4265_2">
<rect width="850" height="850" fill="white"/>
</clipPath>
</defs>
</svg>
