<svg width="1700" height="1368" viewBox="0 0 1700 1368" fill="none" xmlns="http://www.w3.org/2000/svg">
<path d="M850.412 0C1085.13 8.24674e-05 1275.41 190.279 1275.41 425C1275.41 659.721 1085.13 850 850.412 850C615.691 850 425.412 659.721 425.412 425C425.412 190.279 615.691 0 850.412 0ZM698.27 538.111V756.089C737.333 774.069 780.123 785.338 825.162 788.422V600H887.162V787.453C932.469 782.914 975.328 770.075 1014.2 750.477V537.611L856.483 379.897L698.27 538.111ZM510.012 555.009C535.698 622.221 580.717 679.876 638.27 721.173V598.111L637.912 598.469V512.605L856.268 294.25L856.483 294.466L856.699 294.25L1075.08 512.626V516.071H1075.2V711.683C1129.09 669.368 1170.75 612.184 1194.01 546.312L856.357 208.659L510.012 555.009ZM729.157 81.3809C587.579 131.34 486.126 266.323 486.126 425C486.126 446.366 487.967 467.303 491.496 487.66L813.426 165.728L730.785 83.0859L729.157 81.3809ZM978.61 86.4062L899.289 165.728L1210.96 477.396C1213.42 460.286 1214.7 442.792 1214.7 425C1214.7 269.593 1117.38 136.916 980.369 84.5791L978.61 86.4062ZM850.412 60.7139C832.621 60.7139 815.127 61.9906 798.018 64.4551L856.357 122.796L913.068 66.084C892.712 62.5552 871.777 60.7139 850.412 60.7139Z" fill="black"/>
<path d="M1593.51 1367.88C1570.32 1367.88 1550 1363.03 1532.53 1353.32C1515.36 1343.61 1501.9 1330.19 1492.17 1313.06C1482.72 1295.93 1478 1276.23 1478 1253.95C1478 1231.68 1482.72 1212.12 1492.17 1195.28C1501.9 1178.15 1515.36 1164.87 1532.53 1155.45C1549.71 1145.74 1569.75 1140.88 1592.65 1140.88C1614.41 1140.88 1633.3 1145.45 1649.33 1154.59C1665.36 1163.44 1677.81 1176 1686.69 1192.28C1695.56 1208.55 1700 1227.54 1700 1249.24C1700 1253.24 1699.86 1256.95 1699.57 1260.38C1699.28 1263.81 1698.85 1267.23 1698.28 1270.66H1511.49V1232.97H1656.63L1645.47 1243.25C1645.47 1222.69 1640.74 1207.27 1631.3 1196.99C1621.85 1186.71 1608.68 1181.57 1591.79 1181.57C1573.47 1181.57 1558.87 1187.85 1547.99 1200.42C1537.4 1212.98 1532.1 1231.11 1532.1 1254.81C1532.1 1278.22 1537.4 1296.21 1547.99 1308.78C1558.87 1321.06 1574.19 1327.19 1593.94 1327.19C1605.39 1327.19 1615.41 1325.05 1624 1320.77C1632.58 1316.49 1638.88 1309.92 1642.89 1301.07H1693.99C1686.83 1321.63 1674.67 1337.9 1657.49 1349.89C1640.6 1361.89 1619.27 1367.88 1593.51 1367.88Z" fill="black"/>
<path d="M1360.95 1367.88C1340.06 1367.88 1322.88 1363.02 1309.43 1353.3C1296.26 1343.3 1288.1 1329.58 1284.95 1312.14L1288.81 1311.71V1363.6H1236V1054.88H1290.1V1194.23L1286.24 1193.37C1289.96 1177.08 1298.69 1164.22 1312.43 1154.79C1326.46 1145.35 1343.78 1140.64 1364.39 1140.64C1383.85 1140.64 1400.74 1145.35 1415.06 1154.79C1429.65 1163.93 1440.96 1176.94 1448.98 1193.8C1456.99 1210.67 1461 1230.53 1461 1253.4C1461 1276.56 1456.85 1296.71 1448.55 1313.86C1440.25 1331.01 1428.65 1344.3 1413.77 1353.73C1398.88 1363.17 1381.28 1367.88 1360.95 1367.88ZM1347.21 1323.29C1364.67 1323.29 1378.56 1317.29 1388.86 1305.28C1399.17 1292.99 1404.32 1275.84 1404.32 1253.83C1404.32 1231.82 1399.02 1214.81 1388.43 1202.81C1378.13 1190.8 1364.24 1184.8 1346.78 1184.8C1329.61 1184.8 1315.72 1190.94 1305.13 1203.24C1294.54 1215.24 1289.24 1232.25 1289.24 1254.26C1289.24 1276.27 1294.54 1293.28 1305.13 1305.28C1315.72 1317.29 1329.75 1323.29 1347.21 1323.29Z" fill="black"/>
<path d="M848 1363.88V1145.17H900.801V1196.63H902.089V1363.88H848ZM995.241 1363.88V1222.79C995.241 1209.93 991.95 1200.49 985.368 1194.49C979.072 1188.2 970.057 1185.05 958.324 1185.05C948.021 1185.05 938.577 1187.48 929.991 1192.34C921.406 1197.2 914.537 1204.07 909.386 1212.93C904.521 1221.79 902.089 1232.08 902.089 1243.81L896.508 1193.63C903.949 1177.62 914.681 1164.9 928.704 1155.46C942.727 1145.74 959.039 1140.88 977.641 1140.88C999.963 1140.88 1017.56 1147.32 1030.44 1160.18C1043.32 1172.76 1049.76 1189.06 1049.76 1209.07V1363.88H995.241ZM1142.48 1363.88V1222.79C1142.48 1209.93 1139.33 1200.49 1133.04 1194.49C1126.74 1188.2 1117.73 1185.05 1105.99 1185.05C1095.41 1185.05 1085.82 1187.48 1077.23 1192.34C1068.65 1197.2 1061.92 1204.07 1057.06 1212.93C1052.19 1221.79 1049.76 1232.08 1049.76 1243.81L1040.31 1193.63C1047.47 1177.62 1058.34 1164.9 1072.94 1155.46C1087.54 1145.74 1104.42 1140.88 1123.59 1140.88C1146.49 1140.88 1164.38 1147.46 1177.25 1160.61C1190.42 1173.48 1197 1190.63 1197 1212.07V1363.88H1142.48Z" fill="black"/>
<path d="M760.962 1363.6C759.532 1357.89 758.389 1351.61 757.531 1344.75C756.959 1337.9 756.673 1329.62 756.673 1319.91H754.957V1216.26C754.957 1204.84 751.669 1196.28 745.093 1190.57C738.803 1184.57 729.082 1181.57 715.93 1181.57C703.064 1181.57 692.771 1184 685.051 1188.85C677.617 1193.42 673.042 1200.13 671.327 1208.98H619.433C621.72 1188.71 631.442 1172.29 648.597 1159.73C665.752 1147.16 688.768 1140.88 717.645 1140.88C747.667 1140.88 770.397 1147.74 785.836 1161.44C801.276 1174.86 808.996 1194.71 808.996 1220.98V1319.91C808.996 1326.77 809.425 1333.76 810.282 1340.9C811.426 1348.04 812.999 1355.6 815 1363.6H760.962ZM685.051 1367.88C663.035 1367.88 645.451 1362.46 632.299 1351.61C619.433 1340.47 613 1325.62 613 1307.06C613 1287.08 620.291 1271.23 634.873 1259.52C649.454 1247.82 670.04 1239.96 696.631 1235.97L764.822 1225.69V1259.95L705.637 1268.95C692.771 1270.94 683.05 1274.51 676.473 1279.65C670.183 1284.79 667.038 1291.93 667.038 1301.07C667.038 1309.35 670.04 1315.77 676.045 1320.34C682.049 1324.62 690.34 1326.77 700.919 1326.77C716.359 1326.77 729.225 1322.91 739.518 1315.2C749.811 1307.49 754.957 1298.07 754.957 1286.93L760.962 1319.91C755.243 1335.62 745.808 1347.61 732.656 1355.89C719.79 1363.89 703.921 1367.88 685.051 1367.88Z" fill="black"/>
<path d="M335.828 1363.88L269 1144.88H325.547L364.958 1309.35H361.103L409.51 1144.88H458.775L508.039 1309.35H503.755L542.738 1144.88H598L531.172 1363.88H480.622L431.358 1201.14H435.642L386.378 1363.88H335.828Z" fill="black"/>
<path d="M195.541 1363.88V1145.41H248.884V1363.88H195.541ZM195.543 1109.43V1054.88H248.882V1109.43H195.543Z" fill="black"/>
<path d="M53.093 1367.88C42.246 1367.88 31.8272 1367.03 21.8366 1365.31C11.846 1363.88 4.56714 1362.02 0 1359.74V1315.14C5.70892 1317.43 12.5596 1319.43 20.5521 1321.15C28.5446 1322.58 36.6798 1323.29 44.9577 1323.29C62.6554 1323.29 75.6432 1320 83.9211 1313.43C92.1991 1306.85 96.338 1295.71 96.338 1279.99V1054.88H152V1282.56C152 1311.14 143.579 1332.58 126.738 1346.87C109.897 1360.88 85.3484 1367.88 53.093 1367.88Z" fill="black"/>
</svg>
